Genre:Horror, Sci-Fi, Thriller 
Language:English
IMDb:http://www.imdb.com/title/tt1017460/ 
Encoder: Tony2
.............................................
General
Complete name : Splice CAM XViD FEEL-FREE.avi
Format : AVI
Format/Info : Audio Video Interleave
File size : 952 MiB
Duration : 1h 39mn
Overall bit rate : 1 334 Kbps
Writing application : Lavf51.12.1
..............................................
Video
ID : 0
Format : AVC
Format/Info : Advanced Video Codec
Format profile : Baseline@L5.1
Format settings, CABAC : No
Format settings, ReFrames : 1 frame
Codec ID : H264
Duration : 1h 39mn
Bit rate : 1 194 Kbps
Nominal bit rate : 1 200 Kbps
Width : 704 pixels
Height : 304 pixels
Display aspect ratio : 2.35:1
Frame rate : 23.976 fps
Resolution : 24 bits
Colorimetry : 4:2:0
Scan type : Progressive
Bits/(Pixel*Frame) : 0.233
Stream size : 852 MiB (89%)
Writing library : x264 core 55
..............................................
Audio
ID : 1
Format : MPEG Audio
Format version : Version 1
Format profile : Layer 3
Format settings, Mode : Joint stereo / MS Stereo
Codec ID : 55
Codec ID/Hint : MP3
Duration : 1h 39mn
Bit rate mode : Constant
Bit rate : 128 Kbps
Channel(s) : 2 channels
Sampling rate : 44.1 KHz
Resolution : 16 bits
Stream size : 91.4 MiB (10%)
Alignment : Aligned on interleaves
Interleave, duration : 26 ms (0.63 video frame)
Interleave, preload duration : 26 ms
..................................................
Plot: 
Elsa and Clive, two young rebellious scientists, defy legal and ethical boundaries and forge ahead with.
...................................................
Screenshots:
 
http://postimg.com/image/17000/16295.jpg 
http://postimg.com/image/17000/16296.jpg

....................................................
....................................................